<?xml version="1.0" encoding="utf-8"?>
<!-- Generator: Adobe Illustrator 15.0.0, SVG Export Plug-In . SVG Version: 6.00 Build 0)  -->
<!DOCTYPE svg PUBLIC "-//W3C//DTD SVG 1.1//EN" "http://www.w3.org/Graphics/SVG/1.1/DTD/svg11.dtd">
<svg version="1.1" id="Layer_1" xmlns="http://www.w3.org/2000/svg" xmlns:xlink="http://www.w3.org/1999/xlink" x="0px" y="0px"
	 width="469.461px" height="564.865px" viewBox="0 0 469.461 564.865" enable-background="new 0 0 469.461 564.865"
	 xml:space="preserve">
<g id="_x32_GwUoY.tif">
	<g>
		<path fill-rule="evenodd" clip-rule="evenodd" fill="#FFFFFF" stroke="#000000" stroke-width="3" stroke-miterlimit="10" d="
			M193.109,1.5c2.095,0,4.188,0,6.283,0c22.859,3.562,24.535,43.563,26.7,77.304c1.84,28.677,7.891,61.463,9.424,86.731
			c1.909,31.497-7.073,65.96,4.711,84.845c10.194-5.527,9.57-23.533,10.994-37.709c1.398-13.917,2.688-29.568,3.141-45.251
			c0.953-33.063-3.826-68.735-1.57-96.158c1.352-16.425,6.585-39.169,17.277-41.48c31.955-6.905,34.335,69.141,36.123,103.7
			c2.141,41.371-5.684,76-6.282,113.127c-0.592,36.665,7.954,124.418,39.265,126.326c21.794,1.327,37.147-43.689,50.258-60.335
			c13.157-16.708,61.729-71.87,78.529-24.511c0,2.514,0,5.028,0,7.542c-9.51,17.181-17.093,36.563-26.7,54.678
			c-9.228,17.398-19.034,34.04-26.699,52.793c-12.366,30.248-24.793,54.721-42.406,79.189
			c-13.807,19.18-23.718,29.699-43.976,45.251c-22.391,17.186-45.654,35.516-83.241,35.823c-8.899,0-17.8,0-26.7,0
			c-67.052-3.434-101.571-40.277-117.793-109.356c-7.126-30.348-14.896-59.314-25.129-84.846
			c-11.255-28.079-23.373-50.02-36.124-71.647C25.738,274.692,12.315,253.591,1.5,229.64c0-4.399,0-8.798,0-13.198
			c5.109-14.517,7.617-32.353,20.417-32.053c10.493,0.246,16.497,17.898,25.129,30.167c17.939,25.498,28.201,41.362,43.976,69.762
			c7.668,13.806,15.689,31.784,28.27,28.282c15.622-4.349,8.107-29.184,4.712-41.479c-9.415-34.087-14.142-69.765-20.417-99.929
			C98.62,147.317,76.696,68.848,111.44,69.376c30.377,0.461,30.625,78.288,37.693,103.7c2.806,10.086,9.502,19.886,12.565,30.167
			c6.359,21.352,2.69,52.115,20.417,67.876c13.812-18.455,2.15-47.311,0-77.304c-1.682-23.479-0.095-52.767-1.57-79.189
			C177.722,64.073,164.982,19.913,193.109,1.5z"/>
	</g>
</g>
<g>
	<path d="M139.798,437.663v-8.59h2.783c1.055,0,1.742,0.043,2.062,0.129c0.492,0.129,0.904,0.409,1.236,0.841
		s0.498,0.989,0.498,1.673c0,0.527-0.096,0.971-0.287,1.33s-0.435,0.642-0.729,0.847s-0.595,0.341-0.899,0.407
		c-0.414,0.082-1.014,0.123-1.799,0.123h-1.131v3.24H139.798z M141.532,430.526v2.438h0.949c0.684,0,1.141-0.045,1.371-0.135
		s0.411-0.23,0.542-0.422s0.196-0.414,0.196-0.668c0-0.312-0.092-0.57-0.275-0.773s-0.416-0.33-0.697-0.381
		c-0.207-0.039-0.623-0.059-1.248-0.059H141.532z"/>
	<path d="M147.849,437.663v-8.52h1.734v7.072h4.312v1.447H147.849z"/>
	<path d="M155.132,437.663v-8.59h6.369v1.453h-4.635v1.904h4.312v1.447h-4.312v2.338h4.799v1.447H155.132z"/>
	<path d="M170.882,437.663h-1.887l-0.75-1.951h-3.434l-0.709,1.951h-1.84l3.346-8.59h1.834L170.882,437.663z M167.688,434.265
		l-1.184-3.188l-1.16,3.188H167.688z"/>
	<path d="M171.362,434.868l1.688-0.164c0.102,0.566,0.308,0.982,0.618,1.248s0.729,0.398,1.257,0.398
		c0.559,0,0.979-0.118,1.263-0.354s0.425-0.513,0.425-0.829c0-0.203-0.06-0.376-0.179-0.519s-0.327-0.267-0.624-0.372
		c-0.203-0.07-0.666-0.195-1.389-0.375c-0.93-0.23-1.582-0.514-1.957-0.85c-0.527-0.473-0.791-1.049-0.791-1.729
		c0-0.438,0.124-0.847,0.372-1.228s0.605-0.671,1.072-0.87s1.03-0.299,1.69-0.299c1.078,0,1.89,0.236,2.435,0.709
		s0.831,1.104,0.858,1.893l-1.734,0.076c-0.074-0.441-0.233-0.759-0.478-0.952s-0.61-0.29-1.099-0.29
		c-0.504,0-0.898,0.104-1.184,0.311c-0.184,0.133-0.275,0.311-0.275,0.533c0,0.203,0.086,0.377,0.258,0.521
		c0.219,0.184,0.75,0.375,1.594,0.574s1.468,0.405,1.872,0.618s0.721,0.504,0.949,0.873s0.343,0.825,0.343,1.368
		c0,0.492-0.137,0.953-0.41,1.383s-0.66,0.749-1.16,0.958s-1.123,0.313-1.869,0.313c-1.086,0-1.92-0.251-2.502-0.753
		S171.476,435.829,171.362,434.868z"/>
	<path d="M179.806,437.663v-8.59h6.369v1.453h-4.635v1.904h4.312v1.447h-4.312v2.338h4.799v1.447H179.806z"/>
	<path d="M191.144,437.663v-8.59h2.783c1.055,0,1.742,0.043,2.062,0.129c0.492,0.129,0.904,0.409,1.236,0.841
		s0.498,0.989,0.498,1.673c0,0.527-0.096,0.971-0.287,1.33s-0.435,0.642-0.729,0.847s-0.595,0.341-0.899,0.407
		c-0.414,0.082-1.014,0.123-1.799,0.123h-1.131v3.24H191.144z M192.878,430.526v2.438h0.949c0.684,0,1.141-0.045,1.371-0.135
		s0.411-0.23,0.542-0.422s0.196-0.414,0.196-0.668c0-0.312-0.092-0.57-0.275-0.773s-0.416-0.33-0.697-0.381
		c-0.207-0.039-0.623-0.059-1.248-0.059H192.878z"/>
	<path d="M199.194,437.663v-8.52h1.734v7.072h4.312v1.447H199.194z"/>
	<path d="M214.224,437.663h-1.887l-0.75-1.951h-3.434l-0.709,1.951h-1.84l3.346-8.59h1.834L214.224,437.663z M211.03,434.265
		l-1.184-3.188l-1.16,3.188H211.03z"/>
	<path d="M220.64,434.505l1.682,0.533c-0.258,0.938-0.687,1.634-1.286,2.089s-1.36,0.683-2.282,0.683
		c-1.141,0-2.078-0.39-2.812-1.169s-1.102-1.845-1.102-3.196c0-1.43,0.369-2.54,1.107-3.331s1.709-1.187,2.912-1.187
		c1.051,0,1.904,0.311,2.561,0.932c0.391,0.367,0.684,0.895,0.879,1.582l-1.717,0.41c-0.102-0.445-0.313-0.797-0.636-1.055
		s-0.714-0.387-1.175-0.387c-0.637,0-1.153,0.229-1.55,0.686s-0.595,1.197-0.595,2.221c0,1.086,0.195,1.859,0.586,2.32
		s0.898,0.691,1.523,0.691c0.461,0,0.857-0.146,1.189-0.439S220.495,435.134,220.64,434.505z"/>
	<path d="M223.81,437.663v-8.59h6.37v1.453h-4.635v1.904h4.313v1.447h-4.313v2.338h4.799v1.447H223.81z"/>
	<path d="M235.195,437.663v-8.52h1.734v7.072h4.312v1.447H235.195z"/>
	<path d="M242.478,437.663v-8.59h6.369v1.453h-4.635v1.904h4.312v1.447h-4.312v2.338h4.799v1.447H242.478z"/>
	<path d="M250.494,437.663v-8.59h5.889v1.453h-4.154v2.033h3.586v1.453h-3.586v3.65H250.494z"/>
	<path d="M259.746,437.663v-7.137h-2.549v-1.453h6.826v1.453h-2.543v7.137H259.746z"/>
	<path d="M268.482,437.663v-8.59h1.734v3.381h3.398v-3.381h1.734v8.59h-1.734v-3.756h-3.398v3.756H268.482z"/>
	<path d="M284.888,437.663h-1.887l-0.75-1.951h-3.434l-0.709,1.951h-1.84l3.346-8.59h1.834L284.888,437.663z M281.695,434.265
		l-1.184-3.188l-1.16,3.188H281.695z"/>
	<path d="M285.826,437.663v-8.59h1.688l3.516,5.736v-5.736h1.611v8.59h-1.74l-3.463-5.602v5.602H285.826z"/>
	<path d="M294.468,429.073h3.17c0.715,0,1.26,0.055,1.635,0.164c0.504,0.148,0.936,0.412,1.295,0.791s0.633,0.843,0.82,1.392
		s0.281,1.226,0.281,2.03c0,0.707-0.088,1.316-0.264,1.828c-0.215,0.625-0.521,1.131-0.92,1.518
		c-0.301,0.293-0.707,0.521-1.219,0.686c-0.383,0.121-0.895,0.182-1.535,0.182h-3.264V429.073z M296.203,430.526v5.689h1.295
		c0.484,0,0.834-0.027,1.049-0.082c0.281-0.07,0.514-0.189,0.699-0.357s0.338-0.444,0.455-0.829s0.176-0.909,0.176-1.573
		s-0.059-1.174-0.176-1.529s-0.281-0.633-0.492-0.832s-0.479-0.334-0.803-0.404c-0.242-0.055-0.717-0.082-1.424-0.082H296.203z"/>
	<path d="M306.48,437.663v-8.59h1.734v3.381h3.398v-3.381h1.734v8.59h-1.734v-3.756h-3.398v3.756H306.48z"/>
	<path d="M315.14,437.663v-8.59h6.369v1.453h-4.635v1.904h4.312v1.447h-4.312v2.338h4.799v1.447H315.14z"/>
	<path d="M323.15,437.663v-8.59h3.65c0.918,0,1.584,0.077,2,0.231s0.75,0.429,1,0.823s0.375,0.846,0.375,1.354
		c0,0.645-0.189,1.177-0.568,1.597s-0.945,0.685-1.699,0.794c0.375,0.219,0.684,0.459,0.928,0.721s0.574,0.727,0.988,1.395
		l1.049,1.676h-2.074l-1.254-1.869c-0.445-0.668-0.75-1.089-0.914-1.263s-0.338-0.293-0.521-0.357s-0.475-0.097-0.873-0.097h-0.352
		v3.586H323.15z M324.884,432.706h1.283c0.832,0,1.352-0.035,1.559-0.105s0.369-0.191,0.486-0.363s0.176-0.387,0.176-0.645
		c0-0.289-0.078-0.522-0.232-0.7s-0.371-0.29-0.652-0.337c-0.141-0.02-0.562-0.029-1.266-0.029h-1.354V432.706z"/>
	<path d="M331.81,437.663v-8.59h6.369v1.453h-4.635v1.904h4.312v1.447h-4.312v2.338h4.799v1.447H331.81z"/>
	<path d="M179.398,466.463v-7.137h-2.549v-1.453h6.826v1.453h-2.543v7.137H179.398z"/>
	<path d="M184.801,466.463v-8.59h1.734v3.381h3.398v-3.381h1.734v8.59h-1.734v-3.756h-3.398v3.756H184.801z"/>
	<path d="M193.461,466.463v-8.59h6.369v1.453h-4.635v1.904h4.312v1.447h-4.312v2.338h4.799v1.447H193.461z"/>
	<path d="M201.482,466.463v-8.59h1.688l3.516,5.736v-5.736h1.611v8.59h-1.74l-3.463-5.602v5.602H201.482z"/>
	<path d="M213.465,466.463v-8.59h2.783c1.055,0,1.742,0.043,2.062,0.129c0.492,0.129,0.904,0.409,1.236,0.841
		s0.498,0.989,0.498,1.673c0,0.527-0.096,0.971-0.287,1.33s-0.435,0.642-0.729,0.847s-0.595,0.341-0.899,0.407
		c-0.414,0.082-1.014,0.123-1.799,0.123h-1.131v3.24H213.465z M215.199,459.326v2.438h0.949c0.684,0,1.141-0.045,1.371-0.135
		s0.411-0.23,0.542-0.422s0.196-0.414,0.196-0.668c0-0.312-0.092-0.57-0.275-0.773s-0.416-0.33-0.697-0.381
		c-0.207-0.039-0.623-0.059-1.248-0.059H215.199z"/>
	<path d="M221.475,466.463v-8.59h3.65c0.918,0,1.585,0.077,2.001,0.231s0.749,0.429,0.999,0.823s0.375,0.846,0.375,1.354
		c0,0.645-0.189,1.177-0.568,1.597s-0.945,0.685-1.699,0.794c0.375,0.219,0.685,0.459,0.929,0.721s0.573,0.727,0.987,1.395
		l1.049,1.676h-2.074l-1.254-1.869c-0.445-0.668-0.75-1.089-0.914-1.263s-0.338-0.293-0.521-0.357s-0.475-0.097-0.873-0.097h-0.352
		v3.586H221.475z M223.209,461.506h1.283c0.832,0,1.352-0.035,1.559-0.105s0.369-0.191,0.486-0.363s0.176-0.387,0.176-0.645
		c0-0.289-0.077-0.522-0.231-0.7s-0.372-0.29-0.653-0.337c-0.141-0.02-0.562-0.029-1.266-0.029h-1.354V461.506z"/>
	<path d="M230.134,466.463v-8.59h6.369v1.453h-4.635v1.904h4.312v1.447h-4.312v2.338h4.799v1.447H230.134z"/>
	<path d="M237.699,463.668l1.688-0.164c0.102,0.566,0.309,0.982,0.619,1.248s0.729,0.398,1.256,0.398
		c0.559,0,0.98-0.118,1.264-0.354s0.424-0.513,0.424-0.829c0-0.203-0.059-0.376-0.178-0.519s-0.328-0.267-0.625-0.372
		c-0.203-0.07-0.666-0.195-1.389-0.375c-0.93-0.23-1.582-0.514-1.957-0.85c-0.527-0.473-0.791-1.049-0.791-1.729
		c0-0.438,0.125-0.847,0.373-1.228s0.605-0.671,1.072-0.87s1.029-0.299,1.689-0.299c1.078,0,1.891,0.236,2.436,0.709
		s0.83,1.104,0.857,1.893l-1.734,0.076c-0.074-0.441-0.232-0.759-0.477-0.952s-0.611-0.29-1.1-0.29
		c-0.504,0-0.898,0.104-1.184,0.311c-0.184,0.133-0.275,0.311-0.275,0.533c0,0.203,0.086,0.377,0.258,0.521
		c0.219,0.184,0.75,0.375,1.594,0.574s1.469,0.405,1.873,0.618s0.721,0.504,0.949,0.873s0.342,0.825,0.342,1.368
		c0,0.492-0.137,0.953-0.41,1.383s-0.66,0.749-1.16,0.958s-1.123,0.313-1.869,0.313c-1.086,0-1.92-0.251-2.502-0.753
		S237.812,464.629,237.699,463.668z"/>
	<path d="M245.703,463.668l1.688-0.164c0.102,0.566,0.309,0.982,0.619,1.248s0.729,0.398,1.256,0.398
		c0.559,0,0.98-0.118,1.264-0.354s0.424-0.513,0.424-0.829c0-0.203-0.059-0.376-0.178-0.519s-0.328-0.267-0.625-0.372
		c-0.203-0.07-0.666-0.195-1.389-0.375c-0.93-0.23-1.582-0.514-1.957-0.85c-0.527-0.473-0.791-1.049-0.791-1.729
		c0-0.438,0.125-0.847,0.373-1.228s0.605-0.671,1.072-0.87s1.029-0.299,1.689-0.299c1.078,0,1.891,0.236,2.436,0.709
		s0.83,1.104,0.857,1.893l-1.734,0.076c-0.074-0.441-0.232-0.759-0.477-0.952s-0.611-0.29-1.1-0.29
		c-0.504,0-0.898,0.104-1.184,0.311c-0.184,0.133-0.275,0.311-0.275,0.533c0,0.203,0.086,0.377,0.258,0.521
		c0.219,0.184,0.75,0.375,1.594,0.574s1.469,0.405,1.873,0.618s0.721,0.504,0.949,0.873s0.342,0.825,0.342,1.368
		c0,0.492-0.137,0.953-0.41,1.383s-0.66,0.749-1.16,0.958s-1.123,0.313-1.869,0.313c-1.086,0-1.92-0.251-2.502-0.753
		S245.816,464.629,245.703,463.668z"/>
	<path d="M257.48,466.463v-8.59h6.369v1.453h-4.635v1.904h4.312v1.447h-4.312v2.338h4.799v1.447H257.48z"/>
	<path d="M265.501,466.463v-8.59h1.688l3.516,5.736v-5.736h1.611v8.59h-1.74l-3.463-5.602v5.602H265.501z"/>
	<path d="M276.083,466.463v-7.137h-2.549v-1.453h6.826v1.453h-2.543v7.137H276.083z"/>
	<path d="M281.48,466.463v-8.59h6.369v1.453h-4.635v1.904h4.312v1.447h-4.312v2.338h4.799v1.447H281.48z"/>
	<path d="M289.49,466.463v-8.59h3.65c0.918,0,1.586,0.077,2.002,0.231s0.748,0.429,0.998,0.823s0.375,0.846,0.375,1.354
		c0,0.645-0.189,1.177-0.568,1.597s-0.945,0.685-1.699,0.794c0.375,0.219,0.686,0.459,0.93,0.721s0.572,0.727,0.986,1.395
		l1.049,1.676h-2.074l-1.254-1.869c-0.445-0.668-0.75-1.089-0.914-1.263s-0.338-0.293-0.521-0.357s-0.475-0.097-0.873-0.097h-0.352
		v3.586H289.49z M291.224,461.506h1.283c0.832,0,1.352-0.035,1.559-0.105s0.369-0.191,0.486-0.363s0.176-0.387,0.176-0.645
		c0-0.289-0.076-0.522-0.23-0.7s-0.373-0.29-0.654-0.337c-0.141-0.02-0.562-0.029-1.266-0.029h-1.354V461.506z"/>
	<path d="M298.783,464.248l-0.428-4.359v-2.016h1.781v2.016l-0.422,4.359H298.783z M298.425,466.463v-1.646h1.646v1.646H298.425z"/>
</g>
</svg>
