<?xml version="1.0" encoding="utf-8"?>
<!-- Generator: Adobe Illustrator 15.0.0, SVG Export Plug-In . SVG Version: 6.00 Build 0)  -->
<!DOCTYPE svg PUBLIC "-//W3C//DTD SVG 1.1//EN" "http://www.w3.org/Graphics/SVG/1.1/DTD/svg11.dtd">
<svg version="1.1" id="Layer_1" xmlns="http://www.w3.org/2000/svg" xmlns:xlink="http://www.w3.org/1999/xlink" x="0px" y="0px"
	 width="469.461px" height="564.865px" viewBox="0 0 469.461 564.865" enable-background="new 0 0 469.461 564.865"
	 xml:space="preserve">
<g id="_x32_GwUoY.tif">
	<g>
		<path fill-rule="evenodd" clip-rule="evenodd" fill="#FFFFFF" stroke="#000000" stroke-width="3" stroke-miterlimit="10" d="
			M193.109,1.5c2.095,0,4.188,0,6.283,0c22.859,3.562,24.535,43.563,26.7,77.304c1.84,28.677,7.891,61.463,9.424,86.731
			c1.909,31.497-7.073,65.96,4.711,84.845c10.194-5.527,9.57-23.533,10.994-37.709c1.398-13.917,2.688-29.568,3.141-45.251
			c0.953-33.063-3.826-68.735-1.57-96.158c1.352-16.425,6.585-39.169,17.277-41.48c31.955-6.905,34.335,69.141,36.123,103.7
			c2.141,41.371-5.684,76-6.282,113.127c-0.592,36.665,7.954,124.418,39.265,126.326c21.794,1.327,37.147-43.689,50.258-60.335
			c13.157-16.708,61.729-71.87,78.529-24.511c0,2.514,0,5.028,0,7.542c-9.51,17.181-17.093,36.563-26.7,54.678
			c-9.228,17.398-19.034,34.04-26.699,52.793c-12.366,30.248-24.793,54.721-42.406,79.189
			c-13.807,19.18-23.718,29.699-43.976,45.251c-22.391,17.186-45.654,35.516-83.241,35.823c-8.899,0-17.8,0-26.7,0
			c-67.052-3.434-101.571-40.277-117.793-109.356c-7.126-30.348-14.896-59.314-25.129-84.846
			c-11.255-28.079-23.373-50.02-36.124-71.647C25.738,274.692,12.315,253.591,1.5,229.64c0-4.399,0-8.798,0-13.198
			c5.109-14.517,7.617-32.353,20.417-32.053c10.493,0.246,16.497,17.898,25.129,30.167c17.939,25.498,28.201,41.362,43.976,69.762
			c7.668,13.806,15.689,31.784,28.27,28.282c15.622-4.349,8.107-29.184,4.712-41.479c-9.415-34.087-14.142-69.765-20.417-99.929
			C98.62,147.317,76.696,68.848,111.44,69.376c30.377,0.461,30.625,78.288,37.693,103.7c2.806,10.086,9.502,19.886,12.565,30.167
			c6.359,21.352,2.69,52.115,20.417,67.876c13.812-18.455,2.15-47.311,0-77.304c-1.682-23.479-0.095-52.767-1.57-79.189
			C177.722,64.073,164.982,19.913,193.109,1.5z"/>
	</g>
</g>
</svg>
